# xmcd
#
# Track frame offsets:
#	150
#	13657
#	31991
#	51157
#	70487
#	87894
#	103081
#	123370
#	137768
#	155797
#	169062
#	187532
#	203183
#	223930
#	241645
#
# Disc length: 3405 seconds
#
# Revision: 1
# Processed by: cddbd v1.5.1PL0 Copyright (c) Steve Scherf et al.
# Submitted via: audiograbber 1.82.02
#
DISCID=ce0d4b0f
DTITLE=Chartbuster Country Hits Monthly (July 2001 - Vol. 1) - CB60220
DYEAR=2001
DGENRE=Karaoke
TTITLE0=Keith, Toby - I'm Just Talkin' About Tonight
TTITLE1=Womack, Lee Ann - Am I The Only Thing You've Done Wrong
TTITLE2=Jackson, Alan - Where I Come From
TTITLE3=Warren Brothers, The - Where Does It Hurt
TTITLE4=Hill, Faith - There You'll Be
TTITLE5=Walker, Mike - Homey Do
TTITLE6=Evans, Sara - Let's Dance
TTITLE7=Gillman, Billy - She's My Girl
TTITLE8=Dean, Billy, Suzy Bogguss and Jilian - Keep Mom And Dad In Love
TTITLE9=Strait, George - Home Improvement
TTITLE10=Dixie Chicks, The - Heartbreak Town
TTITLE11=Griggs, Andy - How Cool Is That
TTITLE12=Jolie and The Wanted - When I Look Into Your Eyes I'm Beautiful
TTITLE13=Carpenter, Mary Chapin - Simple Life
TTITLE14=Jones, Kacey - Til Dale Earnhardt Wins Cup #8
EXTD=
EXTT0=
EXTT1=
EXTT2=
EXTT3=
EXTT4=
EXTT5=
EXTT6=
EXTT7=
EXTT8=
EXTT9=
EXTT10=
EXTT11=
EXTT12=
EXTT13=
EXTT14=
PLAYORDER=
